<?xml version="1.0" encoding="UTF-8" standalone="no"?>
<svg
   xmlns:dc="http://purl.org/dc/elements/1.1/"
   xmlns:cc="http://creativecommons.org/ns#"
   xmlns:rdf="http://www.w3.org/1999/02/22-rdf-syntax-ns#"
   xmlns:svg="http://www.w3.org/2000/svg"
   xmlns="http://www.w3.org/2000/svg"
   xmlns:sodipodi="http://sodipodi.sourceforge.net/DTD/sodipodi-0.dtd"
   xmlns:inkscape="http://www.inkscape.org/namespaces/inkscape"
   version="1.0"
   width="3072.0154pt"
   height="1570.0593pt"
   viewBox="0 0 3072.0153 1570.0593"
   preserveAspectRatio="xMidYMid meet"
   id="svg6"
   sodipodi:docname="MICA.svg"
   inkscape:version="0.92.3 (2405546, 2018-03-11)">
  <metadata
     id="metadata12">
    <rdf:RDF>
      <cc:Work
         rdf:about="">
        <dc:format>image/svg+xml</dc:format>
        <dc:type
           rdf:resource="http://purl.org/dc/dcmitype/StillImage" />
        <dc:title></dc:title>
      </cc:Work>
    </rdf:RDF>
  </metadata>
  <defs
     id="defs10" />
  <sodipodi:namedview
     pagecolor="#ffffff"
     bordercolor="#666666"
     borderopacity="1"
     objecttolerance="10"
     gridtolerance="10"
     guidetolerance="10"
     inkscape:pageopacity="0"
     inkscape:pageshadow="2"
     inkscape:window-width="1920"
     inkscape:window-height="1017"
     id="namedview8"
     showgrid="false"
     inkscape:zoom="0.19709906"
     inkscape:cx="1416.5092"
     inkscape:cy="1199.9844"
     inkscape:window-x="-8"
     inkscape:window-y="-8"
     inkscape:window-maximized="1"
     inkscape:current-layer="g4"
     fit-margin-top="150"
     fit-margin-left="150"
     fit-margin-right="150"
     fit-margin-bottom="150" />
  <g
     transform="matrix(0.1,0,0,-0.1,149.62978,1420.1516)"
     id="g4"
     style="fill:#000000;stroke:none">
    <path
       d="m 10860,12697 c -3,-3 -64,-13 -135,-22 -789,-102 -1407,-658 -1556,-1403 -54,-269 -27,-648 61,-873 11,-27 20,-54 20,-59 0,-5 -224,-211 -497,-457 -274,-246 -665,-598 -868,-783 -466,-421 -1363,-1222 -1382,-1233 -11,-7 -38,14 -101,75 -237,230 -493,360 -812,414 -80,13 -140,15 -283,11 -206,-6 -301,-23 -462,-82 -103,-38 -155,-52 -155,-41 0,17 -296,928 -316,975 l -24,54 33,36 c 83,91 137,241 137,375 0,255 -178,485 -426,551 -70,19 -210,21 -279,5 -159,-39 -311,-159 -378,-301 -45,-97 -60,-162 -59,-270 2,-187 92,-354 246,-457 93,-62 182,-92 297,-101 l 91,-6 279,-464 c 154,-255 278,-469 276,-475 -2,-6 -42,-38 -88,-70 -185,-131 -379,-362 -479,-571 -110,-231 -162,-510 -141,-756 5,-65 6,-118 1,-123 -5,-5 -183,0 -422,13 -961,50 -1222,59 -1233,41 -14,-23 -32,-6 -67,63 -115,223 -335,422 -572,517 -162,65 -212,74 -426,74 -213,0 -257,-8 -425,-73 C 432,7172 178,6907 75,6613 47,6533 14,6375 5,6280 c -8,-78 22,-268 62,-393 67,-215 208,-412 398,-556 94,-71 268,-155 390,-188 92,-25 115,-27 285,-27 168,0 194,3 283,27 361,97 652,362 778,708 17,46 33,87 37,91 4,4 239,50 522,102 283,53 670,124 860,160 189,35 349,62 355,60 6,-3 24,-30 39,-62 15,-31 57,-102 93,-157 84,-127 281,-326 403,-406 223,-147 468,-233 728,-254 45,-4 84,-11 87,-15 4,-7 20,-230 55,-780 6,-85 19,-317 30,-515 38,-677 84,-1396 95,-1458 6,-33 -6,-45 -111,-112 -111,-70 -284,-245 -367,-370 -152,-231 -227,-479 -227,-755 0,-368 138,-705 395,-965 211,-214 463,-339 796,-395 145,-24 200,-25 321,-5 214,36 347,77 488,151 381,202 640,563 717,999 23,135 13,396 -21,531 -26,105 -68,218 -113,307 -75,149 -230,337 -368,447 -139,111 -352,214 -522,255 -40,10 -77,23 -82,29 -5,6 -68,209 -141,451 -72,242 -194,645 -270,895 -213,699 -393,1311 -387,1316 2,3 55,18 117,35 338,88 646,300 837,575 34,49 70,100 80,112 l 18,24 410,-202 c 226,-111 427,-208 447,-217 31,-12 38,-21 43,-51 18,-113 55,-192 124,-259 209,-206 547,-143 674,125 30,62 32,75 32,173 0,101 -1,108 -38,181 -125,253 -443,313 -656,124 -47,-41 -57,-46 -84,-41 -141,30 -887,207 -905,215 -22,10 -22,11 -6,47 53,122 69,169 95,270 83,326 53,683 -82,982 -24,52 -27,67 -17,77 17,17 855,481 1598,886 910,497 1398,768 1643,915 l 109,65 109,-51 c 278,-132 559,-189 879,-178 289,10 526,70 781,198 457,229 807,659 919,1132 27,113 60,337 60,407 0,78 -36,313 -66,427 -166,639 -715,1145 -1389,1282 -176,35 -469,64 -485,48 z"
       id="path2"
       style="fill:#ffffff;fill-opacity:1"
       inkscape:connector-curvature="0" />
    <text
       xml:space="preserve"
       style="font-style:normal;font-variant:normal;font-weight:normal;font-stretch:normal;font-size:5597.89160156px;line-height:1.25;font-family:Gotham;-inkscape-font-specification:Gotham;letter-spacing:0px;word-spacing:0px;fill:#ffffff;fill-opacity:1;stroke:none;stroke-width:139.94728088;"
       x="12570.536"
       y="-4150.9424"
       id="text4499"
       transform="scale(1,-1)"><tspan
         sodipodi:role="line"
         id="tspan4497"
         x="12570.536"
         y="-4150.9424"
         style="fill:#ffffff;fill-opacity:1;stroke-width:139.94728088;">MICA</tspan></text>
  </g>
</svg>
