<svg id="Layer_1" data-name="Layer 1" xmlns="http://www.w3.org/2000/svg" xmlns:xlink="http://www.w3.org/1999/xlink" viewBox="0 0 339.78 170.08"><defs><style>.cls-1{fill:none;}.cls-2{fill:#88d0ea;}.cls-3{clip-path:url(#clip-path);}.cls-4{fill:#5762a2;}.cls-5{fill:#6491c5;}.cls-6{fill:#a0d4d1;}.cls-7{fill:#845798;}.cls-8{fill:#fcc97a;}.cls-9{fill:#f9efb5;}.cls-10{fill:#dd5a5f;}.cls-11{fill:#af5ea1;}.cls-12{fill:#f07e53;}.cls-13{fill:#fff;}</style><clipPath id="clip-path"><path class="cls-1" d="M123.25,144a14.22,14.22,0,0,1-12.38,7.1H32a14.34,14.34,0,0,1-12.5-21.38L31.7,108.1a55,55,0,0,0,18.2,3.1c.92,0,1.83,0,2.76-.07a55.77,55.77,0,0,0,23-6.25,49.5,49.5,0,0,1,30.92-5l16.81,29.88a14.24,14.24,0,0,1-.12,14.28Zm0,0"/></clipPath></defs><title>SOLVE LABS_ICON_TEXT_W</title><path class="cls-2" d="M60.64,91.3a4.45,4.45,0,1,1,4.45-4.45,4.45,4.45,0,0,1-4.45,4.45Zm0,0"/><g class="cls-3"><polygon class="cls-4" points="30.4 105.54 21.98 120.11 122.44 120.11 30.4 105.54"/><polygon class="cls-5" points="41.76 85.86 30.4 105.54 122.44 120.11 41.76 85.86"/><polygon class="cls-6" points="122.44 120.11 72.21 33.11 57.14 59.22 122.44 120.11 122.44 120.11"/><polygon class="cls-2" points="57.14 59.22 41.76 85.86 122.44 120.11 57.14 59.22"/><polygon class="cls-7" points="21.98 120.11 13.11 135.48 122.44 120.11 21.98 120.11"/><polygon class="cls-8" points="91.06 174.47 122.44 174.47 122.44 120.11 91.06 174.47"/><polygon class="cls-9" points="122.44 120.11 122.44 120.11 122.44 174.47 153.82 174.47 122.44 120.11"/><polygon class="cls-10" points="-4.75 166.41 -9.4 174.47 50.31 174.47 122.44 120.11 -4.75 166.41"/><polygon class="cls-11" points="13.11 135.48 -4.75 166.41 122.44 120.11 13.11 135.48"/><polygon class="cls-12" points="50.31 174.47 91.06 174.47 122.44 120.11 50.31 174.47"/></g><path class="cls-13" d="M83.11,78.4a2.77,2.77,0,1,0,2.77,2.76,2.77,2.77,0,0,0-2.77-2.76Zm0,0"/><path class="cls-13" d="M72,61.79a2.77,2.77,0,1,0,2.77,2.77A2.77,2.77,0,0,0,72,61.79Zm0,0"/><path class="cls-13" d="M127,127,91.42,63.83V30.31a8.31,8.31,0,0,0-2.77-16.14H55.43a8.31,8.31,0,0,0-2.77,16.14V63.83L17.11,127A19.39,19.39,0,0,0,34,155.91h76.08A19.38,19.38,0,0,0,127,127ZM57.84,65.91a2.68,2.68,0,0,0,.36-1.35V30.78H61a2.77,2.77,0,1,0,0-5.53H55.43a2.77,2.77,0,0,1,0-5.54H88.65a2.77,2.77,0,0,1,0,5.54H83.11a2.77,2.77,0,1,0,0,5.53h2.77V64.56a2.68,2.68,0,0,0,.36,1.35l16.31,29a53.36,53.36,0,0,0-29,5.93A47.58,47.58,0,0,1,36.44,104ZM122,143.52a13.7,13.7,0,0,1-11.94,6.85H34a13.84,13.84,0,0,1-12.06-20.63l11.74-20.87a53,53,0,0,0,17.56,3c.88,0,1.77,0,2.66-.06a53.65,53.65,0,0,0,22.18-6,47.73,47.73,0,0,1,29.84-4.87l16.22,28.84a13.72,13.72,0,0,1-.12,13.78Zm0,0"/><path class="cls-13" d="M61,78.4a8.31,8.31,0,1,0,8.3,8.3A8.31,8.31,0,0,0,61,78.4Zm0,11.07a2.77,2.77,0,1,1,2.77-2.77A2.77,2.77,0,0,1,61,89.47Zm0,0"/><path class="cls-13" d="M144.69,88.85h10v27.32h17.48v8.76H144.69Z"/><path class="cls-13" d="M192.24,88.59h9.64l15.36,36.34H206.52l-2.58-6.49H190l-2.57,6.49H176.93ZM201,110.65l-4-10.2-4.07,10.2Z"/><path class="cls-13" d="M223,88.85h18.51c4.53,0,7.73,1.13,9.84,3.2a8.08,8.08,0,0,1,2.32,5.87V98c0,4.18-2.37,6.65-5.57,8,4.39,1.44,7.17,3.91,7.17,8.81v.1c0,6.19-5.05,10-13.66,10H223ZM243.8,100c0-2-1.6-3.09-4.54-3.09h-6.55v6.34H239c3,0,4.8-1,4.8-3.14Zm-3.46,10.26h-7.63v6.65h7.74c3.09,0,4.79-1.19,4.79-3.3v-.1C245.24,111.53,243.69,110.24,240.34,110.24Z"/><path class="cls-13" d="M259.79,119.57l5.57-6.65a18.63,18.63,0,0,0,11.7,4.33c2.73,0,4.17-.93,4.17-2.47v-.11c0-1.54-1.18-2.32-6.13-3.5-7.68-1.75-13.61-3.92-13.61-11.29v-.1c0-6.7,5.31-11.55,14-11.55,6.13,0,10.93,1.65,14.84,4.79l-5,7.07a17.69,17.69,0,0,0-10.1-3.56c-2.42,0-3.61,1-3.61,2.32V99c0,1.65,1.24,2.37,6.29,3.51,8.25,1.8,13.4,4.48,13.4,11.23v.11c0,7.37-5.82,11.75-14.58,11.75A25.28,25.28,0,0,1,259.79,119.57Z"/><path class="cls-13" d="M142,76.54l5.57-6.65a18.71,18.71,0,0,0,11.7,4.33c2.73,0,4.17-.93,4.17-2.48v-.1c0-1.54-1.18-2.32-6.13-3.5-7.68-1.76-13.61-3.92-13.61-11.29v-.1c0-6.71,5.31-11.55,14-11.55,6.14,0,10.93,1.65,14.85,4.79l-5,7.06a17.72,17.72,0,0,0-10.11-3.55c-2.42,0-3.6,1-3.6,2.32v.1c0,1.65,1.23,2.37,6.28,3.51,8.25,1.8,13.41,4.48,13.41,11.23v.11c0,7.37-5.83,11.75-14.59,11.75A25.32,25.32,0,0,1,142,76.54Z"/><path class="cls-13" d="M179,64v-.1c0-10.36,8.35-18.76,19.48-18.76s19.38,8.3,19.38,18.66v.1c0,10.36-8.35,18.76-19.48,18.76S179,74.32,179,64Zm28.61,0v-.1c0-5.26-3.72-9.74-9.23-9.74s-9.18,4.43-9.18,9.64v.1c0,5.2,3.77,9.74,9.28,9.74S207.57,69.17,207.57,64Z"/><path class="cls-13" d="M225.43,45.82h10V73.14H252.9V81.9H225.43Z"/><path class="cls-13" d="M252,45.82h11.13l8.19,22.83,8.25-22.83h10.93L275.87,82.16h-9.28Z"/><path class="cls-13" d="M296.24,45.82h29v8.45H306.14v5.52h17.31v7.88H306.14v5.72h19.38V81.9H296.24Z"/><rect class="cls-1" width="339.78" height="170.08"/></svg>