<svg id="Layer_1" data-name="Layer 1" xmlns="http://www.w3.org/2000/svg" xmlns:xlink="http://www.w3.org/1999/xlink" viewBox="0 0 210.71 260.11"><defs><style>.cls-1{fill:none;}.cls-2{fill:#88d0ea;}.cls-3{clip-path:url(#clip-path);}.cls-4{fill:#5762a2;}.cls-5{fill:#6491c5;}.cls-6{fill:#a0d4d1;}.cls-7{fill:#845798;}.cls-8{fill:#fcc97a;}.cls-9{fill:#f9efb5;}.cls-10{fill:#dd5a5f;}.cls-11{fill:#af5ea1;}.cls-12{fill:#f07e53;}.cls-13{fill:#1d1d1b;}</style><clipPath id="clip-path"><path class="cls-1" d="M158.29,144a14.22,14.22,0,0,1-12.38,7.1H67.08a14.34,14.34,0,0,1-12.5-21.38L66.75,108.1a55,55,0,0,0,18.19,3.1c.92,0,1.84,0,2.76-.07a55.73,55.73,0,0,0,23-6.25,49.52,49.52,0,0,1,30.92-5l16.81,29.88a14.21,14.21,0,0,1-.12,14.28Zm0,0"/></clipPath></defs><title>SOLVE LABS_ICON_TEXT_STACKED_B</title><path class="cls-2" d="M95.69,91.3a4.45,4.45,0,1,1,4.44-4.45,4.46,4.46,0,0,1-4.44,4.45Zm0,0"/><g class="cls-3"><polygon class="cls-4" points="65.44 105.54 57.03 120.11 157.49 120.11 65.44 105.54"/><polygon class="cls-5" points="76.8 85.86 65.44 105.54 157.49 120.11 76.8 85.86"/><polygon class="cls-6" points="157.49 120.11 107.26 33.11 92.19 59.22 157.49 120.11 157.49 120.11"/><polygon class="cls-2" points="92.19 59.22 76.8 85.86 157.49 120.11 92.19 59.22"/><polygon class="cls-7" points="57.03 120.11 48.16 135.48 157.49 120.11 57.03 120.11"/><polygon class="cls-8" points="126.11 174.47 157.49 174.47 157.49 120.11 126.11 174.47"/><polygon class="cls-9" points="157.49 120.11 157.49 120.11 157.49 174.47 188.87 174.47 157.49 120.11"/><polygon class="cls-10" points="30.3 166.41 25.65 174.47 85.36 174.47 157.49 120.11 30.3 166.41"/><polygon class="cls-11" points="48.16 135.48 30.3 166.41 157.49 120.11 48.16 135.48"/><polygon class="cls-12" points="85.36 174.47 126.11 174.47 157.49 120.11 85.36 174.47"/></g><path class="cls-13" d="M118.16,78.4a2.77,2.77,0,1,0,2.77,2.76,2.77,2.77,0,0,0-2.77-2.76Zm0,0"/><path class="cls-13" d="M107.08,61.79a2.77,2.77,0,1,0,2.77,2.77,2.77,2.77,0,0,0-2.77-2.77Zm0,0"/><path class="cls-13" d="M162,127l-35.55-63.2V30.31a8.31,8.31,0,0,0-2.77-16.14H90.48a8.31,8.31,0,0,0-2.77,16.14V63.83L52.16,127a19.38,19.38,0,0,0,16.89,28.88h76.07A19.38,19.38,0,0,0,162,127ZM92.89,65.91a2.77,2.77,0,0,0,.35-1.35V30.78H96a2.77,2.77,0,1,0,0-5.53H90.48a2.77,2.77,0,0,1,0-5.54h33.21a2.77,2.77,0,0,1,0,5.54h-5.53a2.77,2.77,0,1,0,0,5.53h2.77V64.56a2.77,2.77,0,0,0,.35,1.35l16.32,29a53.38,53.38,0,0,0-29,5.93A47.56,47.56,0,0,1,71.49,104Zm64.18,77.61a13.72,13.72,0,0,1-11.95,6.85H69.05A13.84,13.84,0,0,1,57,129.74l11.74-20.87a53.07,53.07,0,0,0,17.56,3q1.34,0,2.67-.06a53.65,53.65,0,0,0,22.17-6A47.76,47.76,0,0,1,141,100.9l16.23,28.84a13.74,13.74,0,0,1-.12,13.78Zm0,0"/><path class="cls-13" d="M96,78.4a8.31,8.31,0,1,0,8.31,8.3A8.31,8.31,0,0,0,96,78.4Zm0,11.07a2.77,2.77,0,1,1,2.77-2.77A2.78,2.78,0,0,1,96,89.47Zm0,0"/><path class="cls-13" d="M33.27,209.92h10v27.32H60.75V246H33.27Z"/><path class="cls-13" d="M80.82,209.66h9.64L105.82,246H95.1l-2.58-6.5h-14L76,246H65.51Zm8.76,22.06-4-10.2-4.07,10.2Z"/><path class="cls-13" d="M111.55,209.92h18.51c4.53,0,7.73,1.13,9.84,3.19a8.16,8.16,0,0,1,2.32,5.88v.1c0,4.18-2.37,6.65-5.57,8,4.38,1.45,7.17,3.92,7.17,8.82v.1c0,6.19-5,9.95-13.66,9.95H111.55Zm20.82,11.13c0-2-1.59-3.09-4.53-3.09h-6.55v6.34h6.29c3,0,4.79-1,4.79-3.14Zm-3.45,10.26h-7.63V238H129c3.1,0,4.8-1.19,4.8-3.3v-.1C133.82,232.6,132.27,231.31,128.92,231.31Z"/><path class="cls-13" d="M148.37,240.64l5.56-6.65a18.74,18.74,0,0,0,11.71,4.33c2.73,0,4.17-.93,4.17-2.48v-.1c0-1.54-1.18-2.32-6.13-3.5-7.68-1.75-13.61-3.92-13.61-11.29v-.1c0-6.7,5.31-11.55,14-11.55,6.13,0,10.93,1.65,14.84,4.79l-5,7.07a17.64,17.64,0,0,0-10.1-3.56c-2.42,0-3.61,1-3.61,2.32v.1c0,1.65,1.24,2.37,6.29,3.51,8.25,1.8,13.4,4.48,13.4,11.23v.11c0,7.37-5.82,11.75-14.59,11.75A25.27,25.27,0,0,1,148.37,240.64Z"/><path class="cls-13" d="M13.27,197.61,18.84,191a18.69,18.69,0,0,0,11.7,4.33c2.73,0,4.17-.93,4.17-2.48v-.1c0-1.55-1.18-2.32-6.13-3.51C20.9,187.45,15,185.29,15,177.92v-.11c0-6.7,5.31-11.54,14-11.54,6.13,0,10.93,1.65,14.84,4.79l-5,7.06a17.69,17.69,0,0,0-10.1-3.55c-2.42,0-3.61,1-3.61,2.32v.1c0,1.65,1.24,2.37,6.29,3.5,8.25,1.81,13.4,4.49,13.4,11.24v.1c0,7.37-5.82,11.75-14.58,11.75A25.32,25.32,0,0,1,13.27,197.61Z"/><path class="cls-13" d="M50.27,185v-.1c0-10.36,8.35-18.77,19.48-18.77s19.38,8.3,19.38,18.66v.11c0,10.36-8.35,18.76-19.48,18.76S50.27,195.39,50.27,185Zm28.6,0v-.1c0-5.26-3.71-9.75-9.22-9.75s-9.18,4.44-9.18,9.64v.11c0,5.2,3.76,9.74,9.28,9.74S78.87,190.24,78.87,185Z"/><path class="cls-13" d="M96.73,166.89h10V194.2h17.48V203H96.73Z"/><path class="cls-13" d="M123.31,166.89h11.13l8.2,22.83,8.25-22.83h10.93l-14.64,36.34H137.9Z"/><path class="cls-13" d="M167.55,166.89h29v8.45H177.44v5.51h17.32v7.89H177.44v5.72h19.38V203H167.55Z"/><rect class="cls-1" width="210.71" height="260.11"/></svg>